inDegrees=no
num_controls=7
num_derivatives=13
num_iterations=197
num_multipliers=7
num_parameters=0
num_slacks=7
num_states=26
objective=5.884844
objective_accelerations=0.701501
objective_balance=0.111954
objective_effort=0.485654
objective_height=4.524237
objective_ligament=0.061498
solver_duration=2438.941582
status=Solve_Succeeded
success=true
DataType=double
version=3
OpenSimVersion=4.4-2022-07-23-0e9fedc
endheader
time	/jointset/ground_pelvis/pelvis_tilt/value	/jointset/ground_pelvis/pelvis_tx/value	/jointset/ground_pelvis/pelvis_ty/value	/jointset/hip_l/hip_flexion_l/value	/jointset/hip_l/hip_adduction_l/value	/jointset/hip_l/hip_rotation_l/value	/jointset/back/lumbar_extension/value	/jointset/patellofemoral_l/patellar_flexion_l/value	/jointset/knee_l/knee_flexion_l/value	/jointset/knee_l/knee_adduction_l/value	/jointset/knee_l/knee_rotation_l/value	/jointset/ankle_l/ankle_angle_l/value	/jointset/subtalar_l/subtalar_angle_l/value	/jointset/ground_pelvis/pelvis_tilt/speed	/jointset/ground_pelvis/pelvis_tx/speed	/jointset/ground_pelvis/pelvis_ty/speed	/jointset/hip_l/hip_flexion_l/speed	/jointset/hip_l/hip_adduction_l/speed	/jointset/hip_l/hip_rotation_l/speed	/jointset/back/lumbar_extension/speed	/jointset/patellofemoral_l/patellar_flexion_l/speed	/jointset/knee_l/knee_flexion_l/speed	/jointset/knee_l/knee_adduction_l/speed	/jointset/knee_l/knee_rotation_l/speed	/jointset/ankle_l/ankle_angle_l/speed	/jointset/subtalar_l/subtalar_angle_l/speed	/forceset/tau_hip_flexion_l	/forceset/tau_hip_adduction_l	/forceset/tau_hip_rotation_l	/forceset/tau_knee_flexion_l	/forceset/tau_ankle_angle_l	/forceset/tau_subtalar_angle_l	/forceset/tau_lumbar_extension	lambda_cid13_p0	lambda_cid13_p1	lambda_cid13_p2	lambda_cid13_p3	lambda_cid13_p4	lambda_cid13_p5	lambda_cid14_p0	/jointset/ground_pelvis/pelvis_tilt/accel	/jointset/ground_pelvis/pelvis_tx/accel	/jointset/ground_pelvis/pelvis_ty/accel	/jointset/hip_l/hip_flexion_l/accel	/jointset/hip_l/hip_adduction_l/accel	/jointset/hip_l/hip_rotation_l/accel	/jointset/back/lumbar_extension/accel	/jointset/patellofemoral_l/patellar_flexion_l/accel	/jointset/knee_l/knee_flexion_l/accel	/jointset/knee_l/knee_adduction_l/accel	/jointset/knee_l/knee_rotation_l/accel	/jointset/ankle_l/ankle_angle_l/accel	/jointset/subtalar_l/subtalar_angle_l/accel	gamma_cid13_p0	gamma_cid13_p1	gamma_cid13_p2	gamma_cid13_p3	gamma_cid13_p4	gamma_cid13_p5	gamma_cid14_p0
0.5	-0.493053564239153	-0.08744538392644562	0.7505567794941008	1.341807796534831	-0.3109063909356143	-0.0433804904616048	-0.3390666852330679	0.7012991366876372	0.7012991366876755	-0.173544927572952	0.1745292502022784	0.01772850600336524	-0.05423384543780153	-0.8647019343623263	-0.2915051805495577	-0.5396772719275809	2.573451927948964	-0.03243506054532682	0.6294074207216432	-0.6143786476262711	1.808086030980314	1.808086030980296	-0.005610251201302534	3.449801851941813e-05	0.1935952728902591	-0.01527269811366722	-0.2714182172582096	0.01560609205729281	-0.01968339565184979	-0.1895623718669446	0.1450773650491281	0.04658956423209789	0.2368030072452369	7.879234425429312	-24.03346153517209	6.193413528852204	-6.76931374352993	-607.9717079858347	-59.77095419510627	-27.58860173006727	0.725385566403416	0.8016975903207925	-0.3048325609995717	-1.730792076185968	0.6287930944442406	-0.3050467309415181	1.959038942544867	-1.141838278861087	-1.141838278861086	0.04766043615896483	-0.0138207999085696	-0.06856045041977575	0.6169668806975942	-3.047505052451138e-07	-8.466023855731877e-07	1.514533259931722e-06	8.37590344200694e-08	-4.130201909335747e-07	1.958798302950167e-07	-3.469336428757768e-07
0.51	-0.5016624218502306	-0.09032005159451452	0.7451459334338134	1.36745113985902	-0.3112009775234058	-0.03710161074559601	-0.3451127624010772	0.7193199067044327	0.7193199067044442	-0.1736020246624751	0.1745293361575119	0.01965999048423226	-0.05435753943013796	-0.8569558802955126	-0.2834078039286643	-0.5423803235142095	2.554883482075349	-0.02649568459616334	0.6262794065192707	-0.5947779337168385	1.795826345072888	1.795826345072864	-0.005797993766977992	-7.694988622400274e-06	0.1926539370250839	-0.00948113732363849	-0.2805671155981771	0.01616734538944372	-0.01975454826074797	-0.1904756888436912	0.145000705620026	0.04713251267118059	0.2437138713357668	7.571521587415691	-24.10385852656072	6.077245344265763	-6.700871347481247	-613.0852080766984	-59.3245038303401	-26.53060670446104	0.8162273368712345	0.8168664022772151	-0.2363857089905109	-1.969913116260531	0.57437159404472	-0.3303745951406734	1.969415453950873	-1.304204977944481	-1.30420497794531	-0.05036881499105055	0.001647214847829229	-0.1140714502627306	0.5579139167571537	-3.264864985528966e-07	-7.180301731377043e-07	1.623512238575576e-06	1.194591994700549e-07	-4.0983570670568e-07	2.398681761106742e-07	-3.493854532493146e-07
0.52	-0.5101904165186296	-0.09311312375551375	0.7397113880073606	1.392898790269811	-0.3114365980019271	-0.03085675033766041	-0.3509610668622304	0.7372108456159023	0.7372108456158856	-0.173660674620069	0.1745292133358623	0.0215806313473085	-0.05442378516685378	-0.8485293458266644	-0.2751860791356252	-0.544417145160683	2.534313345269286	-0.0206418386913083	0.6226035591066765	-0.5748241062550701	1.782119809915015	1.782119809914986	-0.005920824815062412	-7.257357171804999e-06	0.1914265493320552	-0.003783046989543561	-0.2897160139381414	0.01672859872160016	-0.01982570086966462	-0.1913890058204342	0.1449240461909257	0.04767546111026924	0.2506247354262983	7.261022579500483	-24.17788291551558	5.966357001050824	-6.656727834352195	-618.2664630994996	-58.96038234587075	-25.47190449833293	0.8614816468103498	0.8265672247499244	-0.1715865729685272	-2.131130262675418	0.6116870855825474	-0.4146133729858821	2.029661653012016	-1.431208128950625	-1.431208128950624	0.06064273967716591	-0.005294672190083705	-0.1257708159904597	0.5982727895108325	-2.881290241989516e-07	-6.712283618328382e-07	1.458127646142157e-06	9.478891118739266e-08	-3.615811559716552e-07	2.488748710431456e-07	-3.192051400171067e-07
0.53	-0.5186309079947725	-0.09582344006631584	0.7342598093858111	1.418131093033146	-0.3116139650217136	-0.02465143795598451	-0.3566081442743679	0.7549577312683554	0.7549577312683291	-0.1737197869943217	0.1745292968719502	0.02348770174261422	-0.05443335347386723	-0.839463871569975	-0.2668638674264751	-0.5457846620693371	2.511825457343855	-0.01485424104940027	0.6183857541138857	-0.5545491674370318	1.767018894872594	1.767018894872588	-0.00590608944638267	2.25281504190539e-05	0.1899404934560167	0.001844909216850121	-0.2986276705991895	0.01703386088248105	-0.0198809376969377	-0.1924725339819325	0.1450068994332288	0.04802254155972556	0.2572927971556125	6.998539703885127	-24.17823210120321	5.84712926404043	-6.587479819808111	-623.3877032299639	-58.50282146569338	-24.41292152870778	0.9448054424232005	0.8370618499201006	-0.1023139348954707	-2.355924686380868	0.558798460747353	-0.4366113209493398	2.032741306502963	-1.585236376793533	-1.585236376790004	-0.02883582156355866	0.006592064028240955	-0.1670761933639724	0.541328015380975	-2.556327795553436e-07	-6.214465402851162e-07	1.320290730453322e-06	7.532626846455993e-08	-3.188868089420563e-07	2.571036232964821e-07	-2.926578724763498e-07
0.54	-0.5269775997028834	-0.09845013151884191	0.7287979596581589	1.443128855591447	-0.3117341555936304	-0.0184905530759415	-0.3620512060362642	0.7725464671334041	0.7725464671333667	-0.1737788969662941	0.1745295736434694	0.02537850093516889	-0.05438738802298127	-0.8297693922202869	-0.2584611074804208	-0.546471366381261	2.487405304262267	-0.009206549117394956	0.6137180587801491	-0.534020976206865	1.750489852433945	1.750489852433963	-0.005920344358780021	3.138972979240567e-05	0.1881723087818412	0.007323704590337748	-0.3075393272602369	0.01733912304336187	-0.01993617452422298	-0.1935560621434298	0.1450897526755315	0.04836962200918189	0.2639608588849279	6.731327240446035	-24.18119722751572	5.732253256463556	-6.531047460390488	-628.6013811986537	-58.11820332377138	-23.35449467399457	0.9872826654101338	0.8426768721307274	-0.035424053622523	-2.517583293906728	0.5837059436020028	-0.5045914411750463	2.080312135437719	-1.716833608196079	-1.716833608196076	0.05484468346174239	-0.009479457833589441	-0.1821965756178466	0.5684406229296233	-2.296212996976405e-07	-5.683676861282772e-07	1.212932095418071e-06	6.162527614834716e-08	-2.823441766492691e-07	2.644716730112013e-07	-2.701301448495388e-07
0.55	-0.5352243455786404	-0.1009924848008885	0.7233326308653341	1.467873133700232	-0.3117984186343972	-0.01237871022339694	-0.3672878107336695	0.7899630588760537	0.789963058876037	-0.1738378166507783	0.1745298765168035	0.02725033892256264	-0.05428721085821542	-0.8194812568522208	-0.2500043689872483	-0.5464804676368354	2.461145338086015	-0.003672294206582048	0.6085730495930637	-0.5132754667380242	1.7326035469548	1.732603546954798	-0.005861537317185352	3.18138414932718e-05	0.1861519517307427	0.01268393850813085	-0.3161991432359156	0.01748277742156709	-0.01996712242107518	-0.1946389878100761	0.1451201665408866	0.04853318372836921	0.2703593365036639	6.45211834925809	-24.10421532178582	5.606750418871272	-6.404252258239577	-633.6306823503427	-57.61555123804447	-22.29764929724981	1.064326897924446	0.8479601595748183	0.03338303814254606	-2.725987035772354	0.5342657794326375	-0.53130509032597	2.075344833027815	-1.858219820517155	-1.858219820520157	-0.01834731008001611	0.004936907599396981	-0.2184522335796283	0.5155968119450841	-2.064105407512003e-07	-5.131586224102293e-07	1.117916143201459e-06	5.087472583146877e-08	-2.492585304879162e-07	2.70119395216911e-07	-2.48990527024513e-07
0.5600000000000001	-0.5433652605156326	-0.1034501131336706	0.7178706182998871	1.492345655395998	-0.3118081430231334	-0.006320687349294071	-0.3723162254403021	0.8071940494033643	0.8071940494033659	-0.1738960974697661	0.1745302103436366	0.02910067394670063	-0.05413427494712345	-0.8086032044673714	-0.2415161176275028	-0.5458081209057147	2.433054021658246	0.00170118128869953	0.6029540630919514	-0.4923829780523615	1.713369609365918	1.713369609365895	-0.005792571259124112	3.758043029294434e-05	0.1838717161306931	0.01787545385556149	-0.3248589592115935	0.01762643179977119	-0.01999807031794875	-0.1957219134767203	0.1451505804062412	0.04869674544755528	0.2767578141224015	6.166729757106371	-24.02912401508416	5.484945053302147	-6.282279063149531	-638.7705777394665	-57.17936150161946	-21.24374613465859	1.105266068766807	0.8489794454453407	0.1008655437164738	-2.883853344210073	0.5515500604957366	-0.5993869039804102	2.109707978802088	-1.986360030143586	-1.986360030143586	0.05687648675505298	-0.008410962413836485	-0.2341722854080816	0.5346969088571328	-1.865606468982754e-07	-4.553933072187308e-07	1.037711410367212e-06	4.366470591379153e-08	-2.203212676842846e-07	2.737027244118096e-07	-2.295166409616296e-07
0.5700000000000001	-0.5513946016816887	-0.1058227807854017	0.7124187175404677	1.516528441832028	-0.311764817752603	-0.0003212091606709407	-0.3771350563631187	0.8242261718092534	0.8242261718092563	-0.1739533159957538	0.1745305579505438	0.03092701768599308	-0.05393013410658154	-0.7971741835370717	-0.2330190915479944	-0.544458588791531	2.403213229701251	0.006932646418597652	0.5968665630276193	-0.4713749498285145	1.69284010760552	1.692840107605522	-0.005650611081902223	3.41417508197871e-05	0.1813573814274977	0.02292000591725578	-0.3332052697762006	0.0175878771428849	-0.02000577954421993	-0.1968108583284747	0.1451774696620756	0.04870814983078069	0.2828453570760872	5.889604220332934	-23.89123049425102	5.355220360045616	-6.118578897327506	-643.675031013588	-56.65949609671087	-20.1942807356079	1.175320645412048	0.8498202820853261	0.1689725827220843	-3.077728282975121	0.504181286753898	-0.6248755897394787	2.097588746537865	-2.118416179749771	-2.118416179746145	-0.007109517495992056	0.003796157350124564	-0.2660063350404331	0.4843788734188506	-1.671971592662032e-07	-3.998198244895656e-07	9.573059282315469e-07	3.701552326235006e-08	-1.929542334637267e-07	2.737443113441548e-07	-2.10063763220344e-07
